<svg xmlns="http://www.w3.org/2000/svg" viewBox="0 0 48 48">
  <circle cx="24" cy="24" r="24" fill="black"/>
  <path d="M25.7227 24.5352H34.459V37.0332C33.0996 37.4668 31.7168 37.7949 30.3105 38.0176C28.9043 38.2402 27.2754 38.3516 25.4238 38.3516C21.5332 38.3516 18.5039 37.1973 16.3359 34.8887C14.168 32.5684 13.084 29.3223 13.084 25.1504C13.084 22.4785 13.6172 20.1406 14.6836 18.1367C15.7617 16.1211 17.3086 14.5859 19.3242 13.5312C21.3398 12.4648 23.7012 11.9316 26.4082 11.9316C29.1504 11.9316 31.7051 12.4355 34.0723 13.4434L32.9121 16.0801C30.5918 15.0957 28.3594 14.6035 26.2148 14.6035C23.0859 14.6035 20.6426 15.5352 18.8848 17.3984C17.127 19.2617 16.248 21.8457 16.248 25.1504C16.248 28.6191 17.0918 31.25 18.7793 33.043C20.4785 34.8359 22.9688 35.7324 26.25 35.7324C28.0312 35.7324 29.7715 35.5273 31.4707 35.1172V27.207H25.7227V24.5352Z" fill="white"/>
</svg>
